# xmcd
# 
# Track frame offsets:
#	150
#	9990
#	28117
#	42652
#	54887
#	65230
#	77960
#	89305
#	99367
#	109052
#	119842
#	130145
#	142815
#	155982
#	169360
#	184397
#
# Disc length: 2638 seconds
#
# Revision: 1
# Processed by: cddbd v1.4PL0 Copyright (c) Steve Scherf et al.
# Submitted via: Audio-CD-Archiv 2.10.435
#
DISCID=e60a4c10
DTITLE=Various Artist - Trucker's Christmas
DYEAR=1900
DGENRE=country
TTITLE0=Dave Dudley - Jingle Bells
TTITLE1=Dave Dudley - Reverend Nicolas
TTITLE2=Bobby Bare - New York City Snow
TTITLE3=Dave Dudley - How Come It Took So Long To Say Goodbye
TTITLE4=Bobby Bare - Jesus Is The Only One That Loves Us
TTITLE5=Dave Dudley - Salvation Arms
TTITLE6=David Price - The Lonesome Truckdriver's Waltz
TTITLE7=Dave Dudley - Lonely Christmas Again
TTITLE8=Dave Dudley - Christmas Tree
TTITLE9=Bobby Bare - Jesus Christ, What A Man
TTITLE10=Dave Dudley - The Night You Broke The News
TTITLE11=Bobby Lord - Looking For A Cold Lonely Winter
TTITLE12=Dave Dudley - White Christmas
TTITLE13=Dave Dudley - Old Time Merry Christmas
TTITLE14=Ronnie Rogers - Love Him Tender, Sweet Jesus
TTITLE15=Dave Dudley - Silent Night
EXTD=
EXTT0=
EXTT1=
EXTT2=
EXTT3=
EXTT4=
EXTT5=
EXTT6=
EXTT7=
EXTT8=
EXTT9=
EXTT10=
EXTT11=
EXTT12=
EXTT13=
EXTT14=
EXTT15=
PLAYORDER=
